<svg xmlns="http://www.w3.org/2000/svg" width="795.716" height="554.972" viewBox="0 0 795.716 554.972">
  <g id="Group_10" data-name="Group 10" transform="translate(-603.681 -145.776)">
    <g id="Page-1" transform="translate(662.203 266.776)">
      <g id="Core" transform="translate(-58.522 -121)" opacity="0.2">
        <g id="cloud-download">
          <path id="Shape" d="M397.858,0C301.709,0,218.822,53.048,179.036,132.619,76.256,145.881,0,228.768,0,331.548,0,440.959,89.518,530.477,198.929,530.477H629.942c92.833,0,165.774-72.941,165.774-165.774,0-86.2-69.625-159.143-152.512-165.774C643.2,198.929,520.531,0,397.858,0ZM563.632,298.394Z" fill="#bf2c2c" fill-rule="evenodd"/>
        </g>
      </g>
    </g>
    <path id="_370080_folder_archive_data_document_documents_icon" data-name="370080_folder_archive_data_document_documents_icon" d="M194.164,64.3H83.7V60.052a17,17,0,0,0-17-17H24.212a17,17,0,0,0-17,17v140.21a17,17,0,0,0,17,17H194.164a17,17,0,0,0,17-17V81.3A17,17,0,0,0,194.164,64.3ZM15.715,60.052a8.509,8.509,0,0,1,8.5-8.5H66.7a8.509,8.509,0,0,1,8.5,8.5V72.8H194.164a8.509,8.509,0,0,1,8.5,8.5v8.5H15.715V60.052ZM194.164,208.76H24.212a8.509,8.509,0,0,1-8.5-8.5V98.292H202.662V200.263A8.509,8.509,0,0,1,194.164,208.76Z" transform="translate(892.351 307.943)" fill="#fff"/>
    <g id="Page-1-2" data-name="Page-1" transform="translate(980.288 565.498)">
      <g id="Core-2" data-name="Core" transform="translate(-62.497 -15.498)">
        <g id="cloud-download-2" data-name="cloud-download">
          <path id="Shape-2" data-name="Shape" d="M353,199.5,269.251,283.25,185.5,199.5h50.249v-67h67v67Z" transform="translate(-185.503 -132.502)" fill="#bf2c2c" fill-rule="evenodd"/>
        </g>
      </g>
    </g>
  </g>
</svg>
