<svg xmlns="http://www.w3.org/2000/svg" width="1038.704" height="607.706" viewBox="0 0 1038.704 607.706">
  <g id="Group_8" data-name="Group 8" transform="translate(-881.037 -0.239)">
    <path id="path16" d="M279.338-1465.333S204.648-1663,266.707-1877.008c55.062-189.876,162.864-17.265,215.574-204.948C608.509-2531.414,849.764-2503.7,849.764-2503.7v1038.37H279.34" transform="translate(3385.073 850.003) rotate(-90)" fill="#bf2c2c"/>
    <g id="online-shopping-ecommerce-svgrepo-com" transform="translate(1367 17.64)">
      <rect id="Rectangle_1" data-name="Rectangle 1" width="127.578" height="95.928" transform="translate(162.904 329.321)" fill="#666"/>
      <path id="Path_1" data-name="Path 1" d="M183.976,389.08h75.895l-75.895,51.272Z" transform="translate(-21.072 -43.148)" fill="#333"/>
      <g id="Group_1" data-name="Group 1" transform="translate(0 34.249)">
        <path id="Path_2" data-name="Path 2" d="M341.685,495.975H140.663A14.209,14.209,0,0,1,126.5,481.807h0a14.209,14.209,0,0,1,14.167-14.167H341.671a14.209,14.209,0,0,1,14.167,14.167h0A14.165,14.165,0,0,1,341.685,495.975Z" transform="translate(-14.488 -86.394)" fill="#d6d6d6"/>
        <path id="Path_3" data-name="Path 3" d="M425.023,348.764H28.335A28.427,28.427,0,0,1,0,320.429V65.415A28.427,28.427,0,0,1,28.335,37.08H425.023a28.427,28.427,0,0,1,28.335,28.335V320.429A28.427,28.427,0,0,1,425.023,348.764Z" transform="translate(0 -37.08)" fill="#d6d6d6"/>
      </g>
      <rect id="Rectangle_2" data-name="Rectangle 2" width="414.468" height="272.836" transform="translate(19.452 53.672)" fill="#fff"/>
      <circle id="Ellipse_1" data-name="Ellipse 1" cx="75.116" cy="75.116" r="75.116" transform="translate(251.373 97.159)" fill="#999"/>
      <path id="Path_4" data-name="Path 4" d="M362.419,228.474v-10.1A34.7,34.7,0,0,1,345.56,213.8l2.833-9.783a32.859,32.859,0,0,0,16.236,4.576c6.56,0,11.036-3.223,11.036-8.224,0-4.682-3.641-7.7-11.334-10.505-10.944-3.96-18.028-8.954-18.028-18.637a18.136,18.136,0,0,1,16.76-17.709V143.328H371.6V153a33.348,33.348,0,0,1,14.359,3.436l-2.833,9.577a30.862,30.862,0,0,0-14.167-3.542c-7.282,0-9.917,3.747-9.917,7.289,0,4.25,3.747,6.659,12.595,10.193,11.66,4.371,16.859,10,16.859,19.261a18.976,18.976,0,0,1-17.589,18.524v10.725Z" transform="translate(-39.579 -15)" fill="#fff"/>
      <circle id="Ellipse_2" data-name="Ellipse 2" cx="72.976" cy="72.976" r="72.976" transform="translate(51.782 12.36)" fill="#e21b1b"/>
      <path id="Path_5" data-name="Path 5" d="M134.8,129.3v-9.8a33.711,33.711,0,0,1-16.37-4.449l2.734-9.513a31.877,31.877,0,0,0,15.768,4.449c6.375,0,10.718-3.131,10.718-7.983,0-4.555-3.542-7.48-11.022-10.208C126,87.956,119.147,83.1,119.147,73.7A17.6,17.6,0,0,1,135.44,56.525V46.608h8.288v9.428a32.223,32.223,0,0,1,13.948,3.336l-2.727,9.3a30.074,30.074,0,0,0-13.742-3.436c-7.084,0-9.6,3.641-9.6,7.084,0,4.144,3.641,6.467,12.234,9.917,11.334,4.25,16.37,9.7,16.37,18.7a18.414,18.414,0,0,1-17.079,17.993v10.406Z" transform="translate(-13.565 -3.923)" fill="#fff"/>
      <circle id="Ellipse_3" data-name="Ellipse 3" cx="56.521" cy="56.521" r="56.521" transform="translate(120.133 191.132)"/>
      <path id="Path_6" data-name="Path 6" d="M194.785,304.832v-7.587a26.248,26.248,0,0,1-12.673-3.443l2.125-7.36a24.637,24.637,0,0,0,12.212,3.443c4.959,0,8.3-2.423,8.3-6.184,0-3.542-2.741-5.787-8.5-7.9-8.217-2.975-13.537-6.73-13.537-14.012a13.631,13.631,0,0,1,12.595-13.3v-7.672h6.418v7.275a25.036,25.036,0,0,1,10.8,2.586l-2.125,7.2a23.324,23.324,0,0,0-10.626-2.656c-5.476,0-7.438,2.833-7.438,5.476,0,3.2,2.833,5.008,9.471,7.665,8.763,3.287,12.68,7.516,12.68,14.479a14.276,14.276,0,0,1-13.225,13.934v8.061Z" transform="translate(-20.858 -26.166)" fill="#fff"/>
    </g>
  </g>
</svg>
