<svg xmlns="http://www.w3.org/2000/svg" width="189.73" height="80" viewBox="0 0 189.73 80">
  <g id="Group_9" data-name="Group 9" transform="translate(-54.27 -30)">
    <text id="XYZ" transform="translate(124 95)" fill="#bf2c2c" font-size="60" font-family="SegoeUIBlack, Segoe UI"><tspan x="0" y="0">XYZ</tspan></text>
    <g id="download-svgrepo-com" transform="translate(38.17 42.312)">
      <g id="Group_2" data-name="Group 2" transform="translate(16.1)">
        <path id="Path_7" data-name="Path 7" d="M51.557,327.2a.983.983,0,0,0-.974.895,8.676,8.676,0,0,1-17.258,0,.992.992,0,0,0-.974-.895H20.573a4.475,4.475,0,0,0-4.473,4.473v9.377a4.475,4.475,0,0,0,4.473,4.473H63.357a4.475,4.475,0,0,0,4.473-4.473v-9.365a4.475,4.475,0,0,0-4.473-4.473h-11.8Z" transform="translate(-16.1 -290.147)" fill="#bf2c2c"/>
        <path id="Path_8" data-name="Path 8" d="M155.747,22.49l-3.5,3.5V3.182A3.185,3.185,0,0,0,149.065,0h0a3.185,3.185,0,0,0-3.182,3.182V25.989l-3.5-3.5a3.254,3.254,0,0,0-4.065-.5,3.184,3.184,0,0,0-.51,4.915l9.377,9.377a2.666,2.666,0,0,0,3.771,0l9.377-9.377a3.184,3.184,0,0,0-.51-4.915A3.239,3.239,0,0,0,155.747,22.49Z" transform="translate(-123.2)" fill="#bf2c2c"/>
      </g>
    </g>
  </g>
</svg>
